#!OML:ASF H:\Terrain\Patient Classification 1\Takeo\Monday\TakeoMonday.ASF
:FULLY-SPECIFIED
:DEGREES
1333
root 10.6319 15.922 -1.28689 -7.7107 -38.5753 4.14088
lowerback 34.755 -0.823247 3.5454
upperback 12.5225 -0.48288 0.138975
thorax -3.80831 -0.378607 -1.5467
lowerneck -14.4542 10.2017 3.73236
upperneck -2.4451 13.4643 -14.0653
head 2.8442 6.24025 -3.86647
rclavicle 6.99722e-014 -2.06736e-014
rhumerus -31.5734 26.3216 -86.9275
rradius 102.916
rwrist 12.0026
rhand -35.4362 40.7988
rfingers 7.12502
rthumb -8.56577 10.9925
lclavicle 6.99722e-014 -2.06736e-014
lhumerus -21.9259 -10.1577 94.9743
lradius 105.61
lwrist 18.8109
lhand -27.3551 0.613045
lfingers 7.12502
lthumb -0.763059 30.5914
rfemur -22.1303 -5.19327 16.3327
rtibia 64.2822
rfoot -32.2253 -14.5953
rtoes -10.5948
lfemur -32.1538 20.0988 -20.3531
ltibia 62.6529
lfoot -19.5862 18.7769
ltoes -6.40877
1334
root 10.6192 15.9334 -1.29851 -7.67537 -37.6253 4.28179
lowerback 34.8326 -0.739183 3.12576
upperback 12.4382 -0.479754 0.273946
thorax -3.92878 -0.388963 -1.18502
lowerneck -14.3315 9.90882 2.94824
upperneck -2.44452 13.1679 -13.5309
head 2.70461 6.12176 -3.62754
rclavicle -3.93594e-014 1.59028e-014
rhumerus -30.3006 26.8218 -86.5976
rradius 102.691
rwrist 12.2174
rhand -35.2414 40.2783
rfingers 7.12502
rthumb -8.37774 10.4644
lclavicle -3.93594e-014 1.59028e-014
lhumerus -22.1851 -10.0405 95.3785
lradius 105.664
lwrist 18.8929
lhand -27.6246 0.44448
lfingers 7.12502
lthumb -1.02337 30.4218
rfemur -22.0473 -5.92582 16.1264
rtibia 64.2074
rfoot -32.2491 -14.6679
rtoes -10.3184
lfemur -32.3368 19.5791 -20.6867
ltibia 62.4852
lfoot -19.3037 18.5529
ltoes -6.92796
1335
root 10.6011 15.9439 -1.30921 -7.28318 -36.4562 4.09846
lowerback 34.7631 -0.783699 3.12205
upperback 12.3101 -0.505214 0.336738
thorax -4.0439 -0.395703 -1.10953
lowerneck -14.4468 9.58656 2.5044
upperneck -2.20699 12.7982 -12.8454
head 2.68158 5.95016 -3.38471
rclavicle -4.69132e-014 1.27222e-014
rhumerus -28.9111 27.2321 -86.2965
rradius 102.157
rwrist 11.4344
rhand -34.6207 40.1562
rfingers 7.12502
rthumb -7.77872 10.3193
lclavicle -4.69132e-014 1.27222e-014
lhumerus -22.4262 -10.0751 95.5722
lradius 105.808
lwrist 18.9606
lhand -27.4507 0.51647
lfingers 7.12502
lthumb -0.855374 30.4945
rfemur -22.0276 -6.82759 16.2172
rtibia 64.0784
rfoot -32.15 -15.0891
rtoes -10.9194
lfemur -32.7498 18.9262 -20.8255
ltibia 62.282
lfoot -18.8951 18.251
ltoes -7.51806
1336
root 10.5855 15.9502 -1.32581 -6.68012 -35.3606 3.57301
lowerback 34.6772 -0.798481 3.55529
upperback 12.2686 -0.369568 0.286777
thorax -4.05059 -0.30814 -1.43636
lowerneck -14.9345 9.32027 2.88338
upperneck -1.81335 12.4043 -12.518
head 2.84469 5.73065 -3.35255
rclavicle 6.36111e-015 2.38542e-015
rhumerus -27.3964 27.2078 -86.0528
rradius 101.693
rwrist 10.8113
rhand -34.2126 39.7953
rfingers 7.12502
rthumb -7.38482 9.94417
lclavicle 6.36111e-015 2.38542e-015
lhumerus -22.3575 -10.6477 95.396
lradius 105.875
lwrist 18.9227
lhand -27.2135 0.811657
lfingers 7.12502
lthumb -0.626288 30.7905
rfemur -22.0763 -7.53149 16.7017
rtibia 63.9031
rfoot -32.0479 -15.7342
rtoes -12.2066
lfemur -33.2408 18.342 -20.6151
ltibia 62.0615
lfoot -18.3396 17.9325
ltoes -8.90503
1337
root 10.5715 15.9594 -1.33629 -6.57372 -34.3 3.64897
lowerback 34.5636 -0.730405 3.48238
upperback 12.3665 -0.314172 0.0934597
thorax -3.90553 -0.266748 -1.6206
lowerneck -15.2496 9.08738 3.39619
upperneck -1.79305 12.0028 -12.4893
head 2.89823 5.51862 -3.44661
rclavicle -1.47101e-014 6.52014e-014
rhumerus -25.333 26.6447 -85.5227
rradius 101.459
rwrist 13.0091
rhand -34.0611 38.8923
rfingers 7.12502
rthumb -7.23852 9.03615
lclavicle -1.47101e-014 6.52014e-014
lhumerus -22.1412 -11.0937 95.199
lradius 105.97
lwrist 18.9373
lhand -27.3092 1.04887
lfingers 7.12502
lthumb -0.718702 31.0274
rfemur -21.9124 -8.15925 16.5822
rtibia 63.6866
rfoot -32.1917 -15.9724
rtoes -12.5306
lfemur -33.4515 17.7644 -20.8872
ltibia 61.8368
lfoot -18.0177 17.6671
ltoes -9.05567
1338
root 10.5531 15.9753 -1.33966 -6.65386 -33.0503 3.8611
lowerback 34.4591 -0.725773 3.3387
upperback 12.4785 -0.353712 -0.0481863
thorax -3.7526 -0.274262 -1.68185
lowerneck -15.1394 8.65991 3.06058
upperneck -2.16456 11.4212 -11.9576
head 2.66725 5.26971 -3.3044
rclavicle 5.48646e-014 -6.36111e-015
rhumerus -23.4525 26.6663 -85.1327
rradius 100.938
rwrist 13.3699
rhand -34.1455 38.16
rfingers 7.12502
rthumb -7.31999 8.30665
lclavicle 5.48646e-014 -6.36111e-015
lhumerus -21.9727 -11.3779 95.1311
lradius 105.962
lwrist 19.143
lhand -27.3313 1.24043
lfingers 7.12502
lthumb -0.740078 31.2189
rfemur -21.5238 -9.12974 16.2292
rtibia 63.463
rfoot -32.4577 -15.8763
rtoes -12.1764
lfemur -33.4803 17.0647 -21.2951
ltibia 61.6146
lfoot -17.7282 17.3606
ltoes -8.39901
1339
root 10.5251 15.9828 -1.35932 -6.35965 -32.2231 3.13867
lowerback 34.766 -0.597287 3.60394
upperback 12.4842 -0.0768516 0.127759
thorax -3.83648 -0.136142 -1.72701
lowerneck -15.2077 8.20353 2.33452
upperneck -2.11396 10.8941 -11.0411
head 2.55247 5.04092 -2.96551
rclavicle 5.56597e-015 4.29375e-014
rhumerus -21.7072 26.8136 -84.5793
rradius 100.639
rwrist 13.1706
rhand -33.9224 37.9861
rfingers 7.12502
rthumb -7.10465 8.1253
lclavicle 5.56597e-015 4.29375e-014
lhumerus -21.96 -11.5899 95.1694
lradius 105.902
lwrist 19.2581
lhand -27.2326 0.930867
lfingers 7.12502
lthumb -0.644723 30.9096
rfemur -21.1382 -9.65522 16.9443
rtibia 63.2242
rfoot -32.3763 -16.3335
rtoes -12.2236
lfemur -33.4447 16.8812 -20.6214
ltibia 61.3648
lfoot -17.3574 16.6363
ltoes -8.67355
1340
root 10.4959 15.9824 -1.39377 -5.99559 -31.2692 2.57433
lowerback 35.1053 -0.405292 3.53183
upperback 12.3951 0.186356 0.377712
thorax -4.03963 -0.0182773 -1.51385
lowerneck -15.4624 7.83499 1.94286
upperneck -1.78151 10.4693 -10.4103
head 2.60305 4.83499 -2.73939
rclavicle -1.98785e-014 -9.54166e-015
rhumerus -19.7766 27.044 -83.8352
rradius 100.52
rwrist 12.4676
rhand -33.0266 37.6953
rfingers 7.12502
rthumb -6.23992 7.80721
lclavicle -1.98785e-014 -9.54166e-015
lhumerus -22.0406 -11.5563 95.4201
lradius 106.077
lwrist 19.3446
lhand -27.208 0.466247
lfingers 7.12502
lthumb -0.620981 30.4451
rfemur -21.0494 -10.0955 17.6377
rtibia 63.0395
rfoot -31.9766 -17.3726
rtoes -13.7277
lfemur -33.6781 16.6047 -20.1077
ltibia 61.0569
lfoot -17.3533 15.6629
ltoes -6.64415
1341
root 10.4758 16.0067 -1.36644 -5.88427 -29.9009 3.11499
lowerback 34.3757 -0.386731 3.30655
upperback 12.5296 0.118764 0.186881
thorax -3.64615 -0.0313692 -1.5771
lowerneck -15.3517 7.37718 1.71882
upperneck -2.1215 9.85749 -9.78406
head 2.65364 4.57759 -2.8219
rclavicle 1.11319e-014 1.66979e-014
rhumerus -17.7234 27.1105 -83.0511
rradius 99.8251
rwrist 13.0123
rhand -33.9205 36.684
rfingers 7.12502
rthumb -7.10286 6.82323
lclavicle 1.11319e-014 1.66979e-014
lhumerus -22.069 -11.7032 95.5933
lradius 106.383
lwrist 19.2767
lhand -27.2236 0.888993
lfingers 7.12502
lthumb -0.636003 30.8678
rfemur -21.0161 -11.0887 16.9893
rtibia 62.8238
rfoot -32.0207 -17.5866
rtoes -14.4598
lfemur -33.9817 15.734 -20.9482
ltibia 60.6714
lfoot -17.951 15.0588
ltoes -3.18319
1342
root 10.445 16.0178 -1.37868 -5.73277 -29.0092 3.2559
lowerback 34.1169 -0.0611318 3.05143
upperback 12.6846 0.436289 0.0735783
thorax -3.37772 0.131346 -1.66555
lowerneck -15.329 6.87825 1.33706
upperneck -2.46483 9.20254 -9.21984
head 2.42987 4.28423 -2.62081
rclavicle 3.93594e-014 -5.1684e-014
rhumerus -15.4952 26.6318 -82.2594
rradius 99.1752
rwrist 13.2921
rhand -34.2423 35.8101
rfingers 7.12502
rthumb -7.41348 5.95997
lclavicle 3.93594e-014 -5.1684e-014
lhumerus -21.895 -12.2169 95.5089
lradius 106.504
lwrist 18.9278
lhand -27.0525 1.50376
lfingers 7.12502
lthumb -0.470825 31.483
rfemur -20.9502 -11.5165 16.9004
rtibia 62.6338
rfoot -32.2606 -17.6791
rtoes -13.8696
lfemur -34.2095 15.5675 -21.2321
ltibia 60.4169
lfoot -17.8909 14.4043
ltoes -2.73541
1343
root 10.4295 16.0169 -1.41748 -5.362 -27.1066 2.44129
lowerback 34.4827 -0.421746 3.99009
upperback 12.7691 0.315485 0.0666529
thorax -3.40304 0.111986 -2.12706
lowerneck -15.4867 6.45117 1.10083
upperneck -2.672 8.63091 -8.49994
head 2.29643 4.02766 -2.37999
rclavicle 6.75868e-015 -1.74931e-014
rhumerus -13.0154 25.8051 -81.4896
rradius 98.4861
rwrist 13.8675
rhand -33.9933 35.278
rfingers 7.12502
rthumb -7.1731 5.41955
lclavicle 6.75868e-015 -1.74931e-014
lhumerus -21.4703 -12.9411 95.2856
lradius 106.437
lwrist 18.8347
lhand -27.3401 1.56329
lfingers 7.12502
lthumb -0.748537 31.5417
rfemur -20.5598 -12.8478 17.6274
rtibia 62.3875
rfoot -32.3769 -18.1787
rtoes -13.2445
lfemur -34.5672 14.5106 -20.7182
ltibia 60.2384
lfoot -16.6087 13.8639
ltoes -5.18098
1344
root 10.4152 16.003 -1.49409 -5.3939 -24.1061 1.3973
lowerback 36.0324 -1.32153 5.12079
upperback 12.5395 -0.299507 0.207807
thorax -4.06655 -0.161923 -2.33926
lowerneck -15.8469 6.09851 1.30241
upperneck -2.59368 8.12481 -8.26894
head 2.36054 3.77121 -2.36975
rclavicle 2.98177e-014 -2.06736e-014
rhumerus -10.6638 25.2908 -80.8677
rradius 97.734
rwrist 14.1422
rhand -33.8477 35.0741
rfingers 7.12502
rthumb -7.03253 5.21091
lclavicle 2.98177e-014 -2.06736e-014
lhumerus -21.2054 -13.2814 95.1467
lradius 106.402
lwrist 18.9967
lhand -27.7465 1.27202
lfingers 7.12502
lthumb -1.14107 31.2487
rfemur -19.708 -15.0903 18.4301
rtibia 62.1998
rfoot -32.6548 -18.8295
rtoes -12.8825
lfemur -34.7923 12.4203 -20.0081
ltibia 60.1321
lfoot -14.9661 13.3118
ltoes -9.15476
1345
root 10.3763 16.0429 -1.47158 -4.66293 -23.6939 1.59415
lowerback 34.8216 -0.723748 4.55932
upperback 12.7041 0.192548 0.0899745
thorax -3.58834 0.0851545 -2.36087
lowerneck -16.1459 5.72154 1.54153
upperneck -2.43135 7.5897 -8.21588
head 2.45388 3.49356 -2.4312
rclavicle -5.56597e-015 4.6118e-014
rhumerus -8.72919 24.8709 -80.3609
rradius 97.1068
rwrist 13.8919
rhand -33.5715 34.7339
rfingers 7.12502
rthumb -6.76596 4.862
lclavicle -5.56597e-015 4.6118e-014
lhumerus -21.1595 -13.4557 95.2072
lradius 106.343
lwrist 19.4285
lhand -27.9225 0.898168
lfingers 7.12502
lthumb -1.31103 30.8739
rfemur -20.3119 -15.0062 18.5562
rtibia 61.9856
rfoot -32.8151 -19.1871
rtoes -13.2314
lfemur -35.4314 12.7895 -20.4142
ltibia 59.8318
lfoot -14.5299 12.7677
ltoes -11.7906
1346
root 10.3481 16.0487 -1.49006 -4.52751 -22.0391 1.63225
lowerback 34.9367 -0.746638 4.41148
upperback 12.7122 0.144592 0.0394262
thorax -3.62646 0.0690988 -2.32018
lowerneck -16.6122 5.30052 1.47095
upperneck -2.16869 7.03967 -7.71441
head 2.57108 3.22059 -2.28408
rclavicle -1.55052e-014 -2.70347e-014
rhumerus -6.60013 24.4046 -79.6838
rradius 96.521
rwrist 13.6502
rhand -33.3091 34.1536
rfingers 7.12502
rthumb -6.51266 4.27376
lclavicle -1.55052e-014 -2.70347e-014
lhumerus -21.0018 -14.1095 95.1697
lradius 106.177
lwrist 20.5774
lhand -28.8543 0.347115
lfingers 7.12502
lthumb -2.21097 30.3154
rfemur -20.191 -16.0165 18.5473
rtibia 61.8349
rfoot -32.8465 -19.5705
rtoes -12.5383
lfemur -35.6414 11.976 -20.699
ltibia 59.4386
lfoot -14.1161 12.067
ltoes -11.8045
